<?xml version="1.0" encoding="UTF-8" standalone="no"?>
<svg
   xmlns:dc="http://purl.org/dc/elements/1.1/"
   xmlns:cc="http://creativecommons.org/ns#"
   xmlns:rdf="http://www.w3.org/1999/02/22-rdf-syntax-ns#"
   xmlns:svg="http://www.w3.org/2000/svg"
   xmlns="http://www.w3.org/2000/svg"
   id="Layer_1"
   data-name="Layer 1"
   viewBox="0 0 219.943359375 196.3140751716"
   version="1.1">
  <metadata
     id="metadata75">
    <rdf:RDF>
      <cc:Work
         rdf:about="">
        <dc:format>image/svg+xml</dc:format>
        <dc:type
           rdf:resource="http://purl.org/dc/dcmitype/StillImage" />
      </cc:Work>
    </rdf:RDF>
  </metadata>
  <defs
     id="defs4">
    <style
       id="style2">
      .cls-1 {
        font-family: Kalam-Regular, Kalam;
        font-size: 24.8332290649px;
      }

      .cls-1, .cls-2 {
        fill: #ffffff;
      }

      .cls-2 {
        stroke-width: 0px;
      }
    </style>
  </defs>
  <g
     text-anchor="middle"
     class="cls-1"
     id="g10">
    <g
       aria-label="Gibson Woods"
       id="text6"
       class="st0 st1 st2">
      <path
         d="m 49.446305,144.50407 q -1.564493,0 -3.476652,1.71349 -1.887325,1.71349 -3.22832,4.29615 -1.340994,2.55782 -1.340994,4.76798 0,0.89399 0.571164,1.53966 0.571164,0.62083 1.340994,0.62083 1.191995,0 2.781322,-1.29133 1.61416,-1.31616 2.979988,-3.37732 -1.390661,0.3725 -2.210158,0.3725 -0.521498,0 -0.993329,-0.34767 -0.471831,-0.37249 -0.471831,-0.69533 0,-0.39733 1.067829,-0.62083 1.067828,-0.24833 2.681988,-0.24833 0.893997,0 1.440328,0.76983 0.571164,0.745 0.571164,1.56449 0,1.192 -1.241662,4.91698 -1.241661,3.72499 -1.862492,3.72499 -0.645664,0 -0.645664,-0.72017 0,-0.37249 0.149,-1.06783 0.173832,-0.69533 0.372498,-1.34099 0.198666,-0.6705 0.595998,-1.91216 0.397331,-1.26649 0.645664,-2.06116 -1.216829,2.06116 -2.756489,3.27799 -1.53966,1.192 -2.855821,1.192 -1.589327,0 -3.004821,-1.341 -1.415494,-1.36583 -1.415494,-2.97999 0,-2.50815 1.589327,-5.58747 1.589326,-3.07932 3.99815,-5.26465 2.408823,-2.21016 4.519647,-2.21016 0.695331,0 1.365828,0.84433 0.670497,0.8195 0.670497,1.44033 0,0.39733 -0.273166,0.39733 -0.0745,0 -0.546331,-0.17383 -0.471831,-0.19866 -1.018162,-0.19866 z"
         id="path77" />
      <path
         d="m 55.19093,153.24536 q 0.198665,-0.745 0.422164,-1.76316 0.223499,-1.04299 0.347666,-1.66382 0.148999,-0.64567 0.322832,-1.2665 0.173832,-0.64566 0.347665,-0.94366 0.173832,-0.298 0.372498,-0.298 0.471832,0 0.893996,0.57116 0.422165,0.57117 0.422165,1.09267 0,0.57116 -0.720163,3.30282 -0.720164,2.70682 -1.812826,6.08414 -0.422165,1.24166 -1.067829,1.24166 -0.347665,0 -0.595997,-0.27317 -0.248333,-0.298 -0.248333,-0.69533 0,-0.32283 0.173833,-1.09266 0.198666,-0.79466 0.546331,-2.08599 0.372498,-1.31616 0.595998,-2.21016 z m 3.128986,-10.85212 q 0.422165,0 0.99333,1.01816 0.571164,0.99333 0.571164,1.66383 0,0.24833 -0.223499,0.447 -0.223499,0.19866 -0.471832,0.19866 -0.595997,0 -1.340994,-0.72016 -0.720164,-0.72016 -0.720164,-1.2665 0,-0.44699 0.397332,-0.89399 0.397332,-0.447 0.794663,-0.447 z"
         id="path79" />
      <path
         d="m 64.882874,157.71534 q 1.61416,0 3.15382,-2.18532 1.564493,-2.21016 1.564493,-4.64382 0,-1.46516 -0.893996,-1.46516 -1.440327,0 -3.22832,2.0115 -1.763159,2.01149 -3.054487,4.79281 1.167162,1.48999 2.45849,1.48999 z m -3.15382,0.27317 v -0.0248 q -0.546331,1.66382 -0.794664,1.66382 -0.347665,0 -0.819496,-0.5215 -0.471831,-0.54633 -0.471831,-0.96849 0,-0.5215 0.76983,-3.27799 0.794663,-2.75649 1.564493,-6.63047 0.794663,-3.89882 0.794663,-7.12714 0,-0.74499 0.546331,-0.74499 0.397332,0 0.968496,0.74499 0.571165,0.72017 0.571165,1.4155 0,3.05448 -1.340995,8.71646 2.955155,-3.99815 5.363978,-3.99815 1.167162,0 1.961825,1.14233 0.819496,1.14233 0.819496,2.55782 0,1.73833 -0.918829,3.77465 -0.893996,2.03633 -2.433657,3.50149 -1.53966,1.44032 -3.128986,1.44032 -1.787993,0 -3.426986,-1.71349 z"
         id="path81" />
      <path
         d="m 80.016011,147.31022 q 0.84433,0 1.589327,0.94366 0.744996,0.91883 0.744996,1.61416 0,0.42217 -0.397331,0.42217 -0.273166,0 -0.84433,-0.42217 -0.571164,-0.447 -1.042996,-0.447 -0.720163,0 -2.011491,0.69533 -1.266495,0.69534 -1.266495,1.46517 0,0.34766 0.695331,0.89399 0.720163,0.54633 1.589326,1.09266 0.869163,0.5215 1.564494,1.39066 0.720163,0.84433 0.720163,1.73833 0,1.06783 -1.365827,2.01149 -1.340995,0.91883 -3.22832,0.91883 -1.713493,0 -3.104154,-0.86916 -1.365827,-0.86916 -1.365827,-1.63899 0,-0.32284 0.148999,-0.49667 0.173833,-0.19866 0.422165,-0.19866 0.248332,0 0.69533,0.32283 0.446999,0.32283 1.191995,0.64566 0.769831,0.32283 1.787993,0.32283 1.266495,0 1.912159,-0.32283 0.645663,-0.34766 0.645663,-0.86916 0,-0.596 -0.720163,-1.21683 -0.720164,-0.64566 -1.589327,-1.14233 -0.84433,-0.49666 -1.564493,-1.21683 -0.720164,-0.72016 -0.720164,-1.46516 0,-1.31616 2.061158,-2.73165 2.085991,-1.44033 3.451819,-1.44033 z"
         id="path83" />
      <path
         d="m 89.571373,147.31022 q 1.514827,0 2.508156,1.26649 0.993329,1.24167 0.993329,2.90549 0,1.93699 -0.869163,3.82432 -0.869163,1.86249 -2.408823,3.10415 -1.514827,1.21683 -3.22832,1.21683 -1.266494,0 -2.110824,-1.16716 -0.84433,-1.16716 -0.84433,-2.85582 0,-1.91216 0.84433,-3.84915 0.869163,-1.93699 2.259824,-3.17866 1.415494,-1.26649 2.855821,-1.26649 z m 1.415494,4.22165 q 0,-0.84433 -0.273165,-1.58933 -0.273166,-0.76983 -0.794664,-1.11749 -1.713493,0.47183 -2.955154,2.65715 -1.216828,2.16049 -1.216828,4.22165 0,1.76316 0.943662,2.23499 1.787993,-0.34766 3.029654,-2.43365 1.266495,-2.11083 1.266495,-3.97332 z"
         id="path85" />
      <path
         d="m 103.60525,147.31022 q 0.86916,0 1.71349,1.01816 0.86917,1.01816 0.86917,2.16049 0,1.788 -0.8195,4.37065 -1.48999,4.76798 -2.68199,4.76798 -0.54633,0 -0.54633,-0.745 0,-0.37249 0.17383,-0.96849 0.17384,-0.596 0.5215,-1.66383 0.3725,-1.09266 0.57116,-1.76316 0.72017,-2.43365 0.72017,-3.47665 0,-0.5215 -0.24833,-0.894 -0.2235,-0.37249 -0.47184,-0.37249 -0.22349,0 -0.47183,0.149 -0.24833,0.149 -0.57116,0.49666 -0.298,0.34767 -0.57117,0.69533 -0.27316,0.32283 -0.69533,0.94366 -0.39733,0.62083 -0.67049,1.06783 -0.27317,0.42217 -0.794666,1.24166 -0.521498,0.8195 -0.819497,1.29133 -0.248332,0.3725 -0.69533,1.09266 -0.446998,0.72017 -0.720164,1.1175 -0.248332,0.39733 -0.571164,0.86916 -0.322832,0.47183 -0.571164,0.69533 -0.223499,0.2235 -0.397332,0.2235 -0.372498,0 -0.84433,-0.54633 -0.471831,-0.57116 -0.471831,-0.99333 0,-0.12416 0.173833,-0.64566 0.173832,-0.54633 0.446998,-1.44033 0.273165,-0.91883 0.471831,-1.63899 0.69533,-2.63233 0.744997,-5.33915 0.0745,-1.81282 0.521498,-1.81282 0.546331,0 1.092662,0.57116 0.546331,0.57117 0.546331,1.14233 0,0.79466 -0.422165,2.75649 -0.397332,1.93699 -0.943663,3.62565 2.38399,-4.04782 3.873986,-6.00964 1.51482,-1.98666 2.55782,-1.98666 z"
         id="path87" />
      <path
         d="m 129.52106,142.14491 q 2.90548,0 4.39548,2.30949 1.48999,2.30949 1.48999,5.81097 0,3.50149 -1.73832,6.38214 -1.7135,2.85583 -3.97332,2.85583 -1.58933,0 -2.33432,-1.788 -0.745,-1.78799 -0.9685,-5.09081 -1.043,1.46516 -2.21016,3.07932 -1.51482,2.11083 -2.40882,2.97999 -0.86916,0.84433 -1.39066,0.84433 -0.39733,0 -0.91883,-0.64567 -0.5215,-0.64566 -0.5215,-1.41549 0,-1.19199 0.6705,-6.33247 0.6705,-5.16531 0.6705,-8.04597 0,-0.91883 0.54633,-0.91883 0.54633,0 1.26649,0.64567 0.745,0.64566 0.745,1.26649 0,0.447 -0.84433,5.16531 -0.8195,4.71832 -1.01816,7.4003 1.51482,-2.55782 3.40215,-4.71831 1.91216,-2.18532 2.73165,-2.18532 0.47183,0 0.745,1.16716 0.298,1.16716 0.42216,2.55782 0.12417,1.39066 0.47184,2.55782 0.37249,1.16717 0.99333,1.16717 1.39066,0 2.40882,-2.235 1.04299,-2.25982 1.04299,-4.99147 0,-1.36583 -0.32283,-2.58266 -0.298,-1.21683 -1.01816,-2.08599 -0.69533,-0.86916 -1.68866,-0.86916 -0.6705,0 -1.26649,-0.57117 -0.57117,-0.57116 -0.57117,-0.99333 0,-0.72016 1.192,-0.72016 z"
         id="path89" />
      <path
         d="m 143.40903,147.31022 q 1.51483,0 2.50816,1.26649 0.99333,1.24167 0.99333,2.90549 0,1.93699 -0.86916,3.82432 -0.86917,1.86249 -2.40883,3.10415 -1.51482,1.21683 -3.22832,1.21683 -1.26649,0 -2.11082,-1.16716 -0.84433,-1.16716 -0.84433,-2.85582 0,-1.91216 0.84433,-3.84915 0.86916,-1.93699 2.25982,-3.17866 1.4155,-1.26649 2.85582,-1.26649 z m 1.4155,4.22165 q 0,-0.84433 -0.27317,-1.58933 -0.27316,-0.76983 -0.79466,-1.11749 -1.71349,0.47183 -2.95515,2.65715 -1.21683,2.16049 -1.21683,4.22165 0,1.76316 0.94366,2.23499 1.78799,-0.34766 3.02965,-2.43365 1.2665,-2.11083 1.2665,-3.97332 z"
         id="path91" />
      <path
         d="m 154.66159,147.31022 q 1.51483,0 2.50816,1.26649 0.99333,1.24167 0.99333,2.90549 0,1.93699 -0.86917,3.82432 -0.86916,1.86249 -2.40882,3.10415 -1.51483,1.21683 -3.22832,1.21683 -1.26649,0 -2.11082,-1.16716 -0.84433,-1.16716 -0.84433,-2.85582 0,-1.91216 0.84433,-3.84915 0.86916,-1.93699 2.25982,-3.17866 1.41549,-1.26649 2.85582,-1.26649 z m 1.41549,4.22165 q 0,-0.84433 -0.27316,-1.58933 -0.27317,-0.76983 -0.79466,-1.11749 -1.7135,0.47183 -2.95516,2.65715 -1.21683,2.16049 -1.21683,4.22165 0,1.76316 0.94367,2.23499 1.78799,-0.34766 3.02965,-2.43365 1.26649,-2.11083 1.26649,-3.97332 z"
         id="path93" />
      <path
         d="m 167.72698,152.6742 v -0.12417 q 0,-1.34099 -0.47183,-2.25982 -0.447,-0.91883 -1.09266,-0.91883 -1.06783,0 -2.18533,1.31616 -1.11749,1.31616 -1.78799,3.02965 -0.64566,1.68866 -0.64566,2.93032 0,0.447 0.32283,0.72017 0.32283,0.27316 0.76983,0.27316 0.96849,0 2.60749,-1.39066 1.66382,-1.39066 2.40882,-3.27798 z m 2.73166,-12.31728 q 0.39733,0 0.96849,0.74499 0.596,0.72017 0.596,1.4155 0,0.59599 -0.62083,3.62565 -0.62083,3.00482 -1.44033,6.23314 -1.78799,7.2513 -2.35916,7.2513 -0.34766,0 -0.76983,-0.42216 -0.39733,-0.447 -0.39733,-0.894 0,-0.19867 0.17383,-1.16716 -2.43365,2.48332 -4.24648,2.48332 -1.09266,0 -1.98666,-0.99333 -0.86916,-0.99333 -0.86916,-2.06116 0,-1.53966 0.8195,-3.65048 0.84433,-2.13566 2.40882,-3.87398 1.56449,-1.73833 3.25315,-1.73833 1.83766,0 2.53299,2.11082 1.2665,-5.26464 1.39066,-8.31913 0,-0.74499 0.54634,-0.74499 z"
         id="path95" />
      <path
         d="m 179.30042,147.31022 q 0.84433,0 1.58933,0.94366 0.74499,0.91883 0.74499,1.61416 0,0.42217 -0.39733,0.42217 -0.27316,0 -0.84433,-0.42217 -0.57116,-0.447 -1.04299,-0.447 -0.72017,0 -2.0115,0.69533 -1.26649,0.69534 -1.26649,1.46517 0,0.34766 0.69533,0.89399 0.72016,0.54633 1.58933,1.09266 0.86916,0.5215 1.56449,1.39066 0.72016,0.84433 0.72016,1.73833 0,1.06783 -1.36582,2.01149 -1.341,0.91883 -3.22832,0.91883 -1.7135,0 -3.10416,-0.86916 -1.36582,-0.86916 -1.36582,-1.63899 0,-0.32284 0.14899,-0.49667 0.17384,-0.19866 0.42217,-0.19866 0.24833,0 0.69533,0.32283 0.447,0.32283 1.19199,0.64566 0.76984,0.32283 1.788,0.32283 1.26649,0 1.91216,-0.32283 0.64566,-0.34766 0.64566,-0.86916 0,-0.596 -0.72016,-1.21683 -0.72017,-0.64566 -1.58933,-1.14233 -0.84433,-0.49666 -1.56449,-1.21683 -0.72017,-0.72016 -0.72017,-1.46516 0,-1.31616 2.06116,-2.73165 2.08599,-1.44033 3.45182,-1.44033 z"
         id="path97" />
    </g>
    <g
       id="text8"
       class="st0 st1 st2" />
  </g>
  <g
     id="g70">
    <g
       id="g48">
      <path
         class="cls-2"
         d="m 47.567599,42.862172 c -0.190166,-0.332555 -0.386956,-0.676936 -0.612601,-0.943737 -0.15043,-0.177868 -0.282412,-0.318364 -0.398782,-0.442303 -0.27165,-0.289626 -0.484612,-0.53916 -0.656004,-0.832097 -1.353074,6.674161 -2.549923,14.309562 -2.715048,20.044244 -0.2001,6.944864 0.0175,25.524897 0.247406,45.195781 0.06055,5.17282 0.121574,10.39578 0.175975,15.46168 0.0028,0.29566 0.0085,0.59084 0.01372,0.88508 0.01135,0.59699 0.02223,1.19209 0.01466,1.78388 -0.03926,2.87331 0.373711,3.84165 0.421016,3.94241 l 0.0738,0.158 0.152322,0.0847 c 0.190167,0.10596 0.360465,0.14286 0.505219,0.14286 0.19537,0 0.345327,-0.0676 0.437099,-0.12488 0.547793,-0.34296 0.558674,-1.25028 0.538332,-1.60412 -0.02081,-2.32221 -0.499069,-56.965298 0.301807,-65.393652 0.425717,-4.474473 1.504599,-9.964114 3.273633,-16.644898 -0.899832,-0.192886 -1.41194,-1.081868 -1.772553,-1.712918 z"
         id="path12" />
      <path
         class="cls-2"
         d="m 45.035902,8.8498282 c -0.37105,-0.0064 -0.542724,2.1092048 -0.498582,3.4153228 0.07429,0.489464 0.262656,0.411186 0.633752,0.418471 0.277782,0.0051 0.740276,0.0938 1.284553,0.428969 0.542218,0.33436 0.628785,0.497859 1.83801,0.43739 1.30152,-0.05905 1.772813,0.951996 2.683495,1.456443 0.815399,0.503205 2.359647,0.09563 4.305432,1.152158 0.895564,0.486274 3.638394,0.06064 5.788985,0.543967 1.722788,0.387181 2.607639,-0.281879 2.728418,-1.011747 0.119607,-0.732464 -0.260903,-0.494809 -0.535837,-0.580029 -0.275024,-0.08696 0.890121,-1.453523 1.303778,-2.586234 0.413506,-1.134448 -0.02053,-1.956255 -0.309661,-1.636252 C 63.967149,11.209249 64.138883,9.0936384 64.172915,8.1967658 64.206046,7.3025961 64.039433,6.8099664 63.748382,7.1318118 63.362189,7.5323987 63.27844,7.2869921 63.221959,6.3068686 63.165539,5.3267153 62.564128,4.0949926 62.282492,4.1719246 62.001937,4.2496596 61.716477,4.4067798 61.562188,3.5890687 61.405841,2.7705779 60.796797,1.7019412 60.611294,1.6991684 60.42954,1.6135545 60.320197,2.0201305 60.049013,1.8520689 59.777934,1.6848873 59.811905,0.78801784 59.536986,0.70191087 59.261032,0.61588401 59.137479,1.4285425 59.045247,1.4271428 58.953013,1.4257163 58.878679,0.93539626 58.602679,0.84845946 58.327746,0.76326557 58.30881,1.2522392 57.944417,1.082828 57.669392,0.99584103 57.794727,0.1013283 57.427515,0.01382473 57.062084,-0.15555984 55.710646,1.2891745 55.342399,1.2017511 54.974165,1.1134145 55.283115,0.3026489 54.733218,0.13043811 54.182284,-0.04169258 52.443663,1.804592 52.261909,1.7189781 52.079269,1.635154 52.469255,1.1525826 52.010617,0.98187525 51.550045,0.89125895 49.979027,3.2292099 49.697346,3.3052586 49.415771,3.3821874 49.521364,3.0584523 49.338573,2.9728918 49.15307,2.9701189 48.819519,4.4319574 48.361855,4.2611731 47.901329,4.17144 47.556369,5.9583129 47.373685,5.8736324 47.191,5.7889519 47.199484,5.5449451 46.648737,5.4537087 46.094939,5.3626024 45.673449,9.1863411 45.58018,9.1849947 45.485083,9.2646194 45.40697,8.8553708 45.035902,8.8498282"
         id="path14" />
      <path
         class="cls-2"
         d="m 40.749011,11.429748 c 0.829646,0.122838 1.686776,0.261797 2.204558,0.449845 0.517782,0.188048 1.04492,0.0561 -0.04709,-0.960267 0,0 -4.752062,-3.2208037 -8.199799,-2.9795797 -3.447738,0.241224 -5.384536,0.6327154 -5.582222,1.1084954 -0.197686,0.47578 0.693339,1.1063613 1.639539,1.4251173 0.946199,0.318756 1.732248,0.115629 3.329062,0.26417 2.289647,0.21299 5.764649,0.560251 6.655952,0.692219 z"
         id="path16" />
      <path
         class="cls-2"
         d="m 43.423432,13.944424 c 0,0 -8.678818,0.921644 -12.903021,2.150504 -4.224203,1.228859 -10.59891,4.685025 -12.134984,5.760277 -1.536073,1.075251 -2.100734,1.453606 -1.716715,2.14484 0.384018,0.691233 0.411053,0.620093 2.100734,0.850504 1.689681,0.230411 5.222651,0.768037 6.835529,0.384018 1.612877,-0.384018 7.142743,-1.689681 10.368499,-3.072148 3.225755,-1.382466 8.602013,-4.454614 9.677265,-5.299454 1.075252,-0.844841 2.969634,-1.954773 1.996896,-2.227308 -0.548995,-0.153813 -3.039983,-0.773081 -4.224203,-0.691233 z"
         id="path18" />
      <path
         class="cls-2"
         d="m 42.290588,12.457162 c 0,0 -9.440931,-1.126075 -13.897548,-0.766035 -4.456616,0.36004 -8.690678,2.180569 -9.923653,2.941981 -1.232974,0.761413 -2.69305,0.907165 -1.237934,1.683044 1.455116,0.775879 1.533158,0.545884 3.221988,0.708583 1.688831,0.162698 2.146753,0.702796 3.069624,0.477348 0.922871,-0.225447 4.695704,-1.971654 7.07989,-2.573261 2.384187,-0.601608 6.84287,-1.345661 8.53294,-1.41337 1.69007,-0.06771 5.072277,-0.587141 3.154693,-1.05829 z"
         id="path20" />
      <path
         class="cls-2"
         d="m 48.594597,15.64073 c 0,0 -9.216444,6.605118 -12.211788,10.138088 -2.995344,3.53297 -4.761829,7.987584 -4.761829,9.907676 0,1.920093 0,1.766485 -0.0768,2.611326 -0.0768,0.844841 0.384019,1.382467 1.075252,1.075252 0.691233,-0.307215 4.301007,-3.993792 4.454614,-4.761829 0.153608,-0.768037 1.075252,-5.069044 2.764933,-7.603566 1.689682,-2.534522 5.222652,-6.144296 7.06594,-7.833977 1.843289,-1.689681 5.115401,-3.173847 3.354421,-3.311663 -0.842452,-0.06593 -0.75033,-0.673766 -1.664739,-0.221307 z"
         id="path22" />
      <path
         class="cls-2"
         d="m 51.334212,16.921076 c 0,0 -8.141191,6.297903 -10.598909,10.522106 -2.457719,4.224203 -2.227308,7.680369 -2.227308,8.832425 0,1.152055 0.108102,1.775371 0.815626,1.745891 0.174258,-0.0073 0.99483,-0.228563 1.258074,0.404612 0.165122,0.397163 0.921645,0.844841 1.536074,-0.537626 0.61443,-1.382466 4.454614,-9.754069 5.760277,-11.904572 1.305663,-2.150504 5.222651,-8.448407 5.299455,-9.293247 0.0768,-0.844841 -1.448129,-0.108923 -1.843289,0.230411 z"
         id="path24" />
      <path
         class="cls-2"
         d="m 53.867309,17.919524 c 0,0 -5.441926,8.056345 -6.209963,10.898081 -0.768037,2.841737 -1.009584,6.99718 -0.779173,8.917272 0.230411,1.920092 0.537626,1.843289 1.382467,2.841737 0.84484,0.998448 1.152055,2.457718 2.073699,2.304111 0.921645,-0.153608 2.918541,-5.683474 3.302559,-8.448407 0.384019,-2.764933 0.06111,-10.044532 0.768037,-13.210235 0.292327,-1.309077 0.730026,-3.11666 0.691233,-3.840185 -0.02645,-0.493408 -0.862073,-0.127078 -1.228859,0.537626 z"
         id="path26" />
      <path
         class="cls-2"
         d="m 56.297312,17.60647 c 0,0 -1.62532,5.112031 -1.471712,8.875412 0.153607,3.763381 0.425601,7.420287 1.577656,10.108417 1.152056,2.688129 0.921645,2.534521 2.0737,3.379362 1.152055,0.844841 1.612878,1.766485 2.611326,-1.45927 0.998448,-3.225755 0.691233,-8.448406 0,-11.213339 -0.691234,-2.764933 -3.072148,-8.832425 -3.072148,-8.832425 -0.110329,-0.478601 -0.363424,-0.706386 -0.743067,-0.959482 -0.379643,-0.253095 -0.812581,-0.278231 -0.975755,0.101325 z"
         id="path28" />
      <path
         class="cls-2"
         d="m 59.014582,18.695038 c 0,0 2.764933,7.142743 3.072148,9.754069 0.307214,2.611326 1.45927,6.221099 2.457718,8.141192 0.998448,1.920092 2.740353,4.363882 3.609774,3.916988 0.845028,-0.434356 1.182503,-0.704336 2.457718,-0.61443 0.781307,0.05508 0.537626,-2.534521 -0.307215,-4.608221 -0.844841,-2.0737 -1.766485,-4.915437 -5.069044,-10.061284 -3.302559,-5.145848 -4.915436,-6.451511 -5.299455,-6.989136 -0.384018,-0.537626 -1.228859,-0.230412 -0.921644,0.460822 z"
         id="path30" />
      <path
         class="cls-2"
         d="m 61.011478,18.234216 c 0,0 5.683473,6.989136 7.142744,9.754069 1.45927,2.764933 3.840184,7.296351 5.376258,8.52521 1.536074,1.228859 2.457718,0.844841 3.53297,1.305663 1.075252,0.460822 2.150504,-0.998448 0.307215,-4.377811 -1.843289,-3.379362 -1.689681,-3.840185 -7.449958,-8.986032 -5.760278,-5.145848 -7.142744,-6.144296 -7.910781,-6.374707 -0.768037,-0.230411 -1.228859,-0.0768 -0.998448,0.153608 z"
         id="path32" />
      <path
         class="cls-2"
         d="m 63.480412,17.689113 c 0,0 4.761829,3.916988 6.528314,5.376258 1.766485,1.459271 6.485622,6.469475 7.100052,7.544727 0.614429,1.075252 2.295776,4.891298 2.884428,5.972724 0.799323,1.468454 1.80325,1.437499 2.361937,1.415009 0.518829,-0.02089 1.036041,-0.627933 2.214766,-0.144584 0.714156,0.292848 0.725098,-0.83326 -0.426957,-2.753352 -1.152056,-1.920092 -2.997691,-4.507762 -6.377053,-7.733517 -3.379363,-3.225755 -4.838633,-5.760277 -8.52521,-7.603566 -3.686578,-1.843288 -5.453063,-2.841736 -5.760277,-2.073699 z"
         id="path34" />
      <path
         class="cls-2"
         d="m 64.571203,16.293297 c 0,0 0.563795,-0.644338 6.556163,1.343129 5.281514,1.7517 6.400645,2.890685 8.474345,4.503563 2.073699,1.612877 6.758725,5.606669 7.219547,6.605117 0.460822,0.998448 0.384018,1.382467 0.384018,1.996896 0,0.61443 -1.152055,0.153608 -1.920092,-0.384018 -0.768037,-0.537626 -2.457718,-1.766485 -4.301007,-2.457718 -1.843289,-0.691234 -2.89107,-1.281435 -4.734358,-3.431938 -1.843289,-2.150504 -3.946567,-4.510362 -6.846085,-5.718495 -2.533469,-1.055612 -4.909335,-1.995714 -4.832531,-2.456536 z"
         id="path36" />
      <path
         class="cls-2"
         d="m 71.346991,97.823851 c -0.413861,-0.907607 -1.306554,-2.57423 -3.154232,-5.118065 -3.009227,-4.143025 -8.881957,-8.297661 -11.402228,-9.589153 -2.52027,-1.291492 -7.719666,0.08145 -8.923022,1.347593 -1.203356,1.266143 -3.708823,6.504077 -3.771037,6.82158 l -0.371167,2.837796 c 0,0 0.950271,-1.86168 1.921986,-3.518269 0.971714,-1.65659 1.362062,-0.660739 2.10848,0.09055 0.746417,0.75129 2.938553,0.729429 6.179569,0.70157 3.241015,-0.02786 3.783726,-1.22493 6.585015,-0.895816 2.498474,0.293538 9.40834,6.567255 10.882377,7.908124 0.434622,0.395357 -0.05574,-0.58591 -0.05574,-0.58591 z"
         id="path38" />
      <path
         class="cls-2"
         d="m 43.883363,100.77127 c 0,0 0.04419,-2.596273 -0.845156,-4.058283 -0.889346,-1.46201 -1.373114,-3.07009 -1.99626,-6.01126 -0.623145,-2.941169 -5.297632,-6.391755 -9.53254,-5.637984 -4.234909,0.753771 -7.372322,2.94779 -9.464542,3.062871 -2.09222,0.115082 -8.575195,4.524882 -9.638691,7.435062 0,0 -0.262848,0.561334 0.90028,-0.389604 1.163128,-0.950939 7.029023,-4.27508 12.777727,-3.632129 5.748704,0.642951 10.101548,1.017178 12.490828,2.73703 2.389281,1.719852 3.745395,2.614729 4.210858,5.054053 0.465464,2.439324 1.002839,4.560134 1.002839,4.560134 z"
         id="path40" />
      <path
         class="cls-2"
         d="m 44.259312,114.42034 c 0,0 0.984626,-3.0056 3.305345,-4.69957 2.320718,-1.69396 4.302053,-3.76711 5.591559,-5.76793 1.289505,-2.00081 6.302491,-4.701923 9.252072,-3.24798 2.949581,1.45393 6.767214,2.60978 11.147041,7.23151 4.379826,4.62172 5.125263,5.06211 6.979302,5.59393 1.854039,0.53182 7.151823,2.46591 7.368592,3.58357 0.216768,1.11767 -2.019541,-0.20351 -3.787809,0.085 -1.768268,0.28855 -4.688025,0.0755 -10.129867,-1.32521 -5.441842,-1.4007 -5.41338,-3.99533 -7.566257,-3.56291 -2.152878,0.43242 -4.514142,0.78296 -7.691213,-1.89119 -3.177071,-2.67414 -5.327608,-3.17496 -8.60449,-1.07003 -3.276882,2.10494 -4.942616,5.28541 -5.067572,6.95714 -0.124955,1.67172 -0.796703,-1.88636 -0.796703,-1.88636 z"
         id="path42" />
      <path
         class="cls-2"
         d="m 44.652362,107.80465 c 0,0 -2.066872,-3.10122 -4.451024,-3.68128 -2.384153,-0.58006 -3.789931,-1.98808 -5.791747,-3.54111 -2.001816,-1.553027 -6.577863,-1.800251 -11.043061,3.64258 -4.465198,5.44283 -5.292746,8.63934 -7.654729,9.19729 -2.361983,0.55795 -5.094127,4.05726 -5.071957,5.19527 0.02217,1.13801 1.308558,-0.44781 2.404141,-1.08069 1.095584,-0.63288 4.511719,-0.36805 6.86298,-1.02855 2.351262,-0.66049 6.05324,-2.29154 9.753765,-5.78843 3.700525,-3.49689 3.411773,-5.33269 7.391782,-5.23048 3.980008,0.10221 6.194072,0.90739 7.420493,4.30381 z"
         id="path44" />
      <path
         class="cls-2"
         d="M 36.792345,75.42193 C 35.580824,73.863936 34.113073,72.874296 32.677143,71.824249 31.514737,70.930243 30.209763,70.134045 29.24515,68.864193 L 29.227871,68.798 c -0.07564,-0.05481 -0.05614,-0.198063 0.01941,-0.144095 l 0.119625,-0.0103 c 1.248076,0.329505 2.455697,0.67864 3.674333,0.678777 0.766316,0.01638 1.423474,0.03854 2.146606,0.389517 0.813893,0.412681 1.504042,1.294356 2.325402,1.786261 0.367882,0.220322 2.540713,1.424169 2.650361,1.469872 0.794298,0.331072 1.454609,0.906861 1.941427,1.71098 0.497435,0.799553 0.860613,1.766585 1.030217,2.688946 0.244464,0.978089 0.350189,1.899625 0.473008,2.829551 0.1122,0.934466 0.159284,1.808731 0.21413,2.755297 0.05547,0.603796 0.292583,1.09368 0.575537,1.566756 L 43.32272,83.209706 c -0.148045,-0.262188 -0.290332,-0.52585 -0.444369,-0.788251 -0.225857,-0.432439 -0.514806,-0.866592 -0.844937,-1.280156 -0.61068,-0.777197 -1.313051,-1.481643 -1.996359,-2.119231 -1.212025,-1.07917 -2.204541,-2.276293 -3.24471,-3.600138"
         id="path46" />
    </g>
    <g
       id="g68">
      <path
         class="cls-2"
         d="m 208.80991,71.906336 c -0.33041,-0.571582 -0.78028,-1.022199 -1.35116,-1.351131 -0.57006,-0.328201 -1.18518,-0.492661 -1.84599,-0.492661 -0.65712,0 -1.27072,0.16446 -1.84159,0.492661 -0.57006,0.328932 -1.01998,0.779549 -1.35039,1.351131 -0.3304,0.572314 -0.49561,1.18666 -0.49561,1.843792 0,0.660812 0.16521,1.275901 0.49561,1.845998 0.33041,0.570839 0.78033,1.019993 1.35039,1.348925 0.57087,0.328189 1.18447,0.492661 1.84159,0.492661 0.66081,0 1.27593,-0.164472 1.84599,-0.492661 0.57088,-0.328932 1.02075,-0.778086 1.35116,-1.348925 0.3304,-0.570097 0.49561,-1.185186 0.49561,-1.845998 0,-0.657132 -0.16521,-1.271478 -0.49561,-1.843792 m -1.09228,3.948656 c -0.5819,0.581171 -1.28327,0.872493 -2.10487,0.872493 -0.82156,0 -1.52298,-0.291322 -2.10488,-0.872493 -0.58114,-0.58189 -0.87247,-1.283272 -0.87247,-2.104864 0,-0.821593 0.29133,-1.522974 0.87247,-2.104876 0.5819,-0.581159 1.28332,-0.872481 2.10488,-0.872481 0.8216,0 1.52297,0.291322 2.10487,0.872481 0.5819,0.581902 0.87252,1.283283 0.87252,2.104876 0,0.821592 -0.29062,1.522974 -0.87252,2.104864 m -3.7768,-0.132747 h 0.98091 v -1.551738 c 0.0516,-0.0096 0.0922,-0.01474 0.12091,-0.01474 0.1291,0 0.25739,0.07374 0.38649,0.220515 0.12906,0.146027 0.38204,0.59517 0.7589,1.345966 h 1.16011 c -0.4189,-0.747837 -0.63204,-1.127668 -0.63794,-1.140936 -0.10993,-0.177009 -0.21463,-0.310499 -0.3142,-0.401214 -0.0708,-0.06416 -0.18218,-0.125377 -0.33333,-0.183637 0.36727,-0.08702 0.63574,-0.227154 0.80684,-0.42039 0.17033,-0.193224 0.2559,-0.421853 0.2559,-0.685885 0,-0.33852 -0.11208,-0.608449 -0.33558,-0.809799 C 206.56562,71.879046 206.20425,71.778 205.70495,71.778 h -1.76412 z m 0.98091,-3.257617 h 0.46387 c 0.2677,0 0.45654,0.04573 0.56791,0.137924 0.11136,0.09145 0.16668,0.210184 0.16668,0.354748 0,0.145284 -0.0575,0.263289 -0.17407,0.355479 -0.11577,0.09145 -0.31564,0.137913 -0.59887,0.137913 h -0.42552 z"
         id="path50" />
      <path
         class="cls-2"
         d="m 98.023518,6.6736185 c -0.545257,0.050332 -1.986685,2.3088506 -1.825603,4.4029245 0.161083,2.094074 0.37586,18.631887 0.37586,20.457489 0,1.825603 0.429553,12.295972 0.375859,13.853104 -0.05369,1.557131 0,4.564006 0.590636,6.496998 0.590636,1.932991 1.557132,2.792098 3.27535,2.362544 1.71821,-0.429553 2.30885,-1.02019 3.43643,-3.32904 1.12757,-2.308851 5.74527,-14.658516 6.87285,-18.846664 1.12758,-4.188147 1.8793,-5.960056 2.30885,-6.01375 0.42956,-0.05369 0.64433,-0.322165 1.07389,2.523627 0.42955,2.845793 2.04038,11.651641 2.30885,13.853104 0.26847,2.201462 0.96649,8.3226 1.23496,9.879732 0.26848,1.557132 1.23497,6.604387 4.08076,6.228527 2.8458,-0.375859 3.91968,-4.027065 4.40293,-8.000435 0.48325,-3.973371 3.54381,-20.45749 4.08076,-23.088506 0.53694,-2.631015 5.04725,-16.806284 5.58419,-18.4708039 0.53695,-1.6645202 2.04038,-5.4231141 -0.16108,-5.9063618 -2.20146,-0.4832478 -3.11426,2.0940737 -4.34923,5.5305024 -1.23497,3.4364283 -3.75859,11.7590293 -5.31573,18.5781923 -1.55713,6.819163 -2.52362,11.866418 -2.7384,12.886608 -0.21478,1.02019 -0.59064,2.68471 -0.96649,2.631016 -0.37586,-0.0537 -1.07389,-2.416239 -1.933,-7.839353 -0.8591,-5.423114 -1.93299,-12.618137 -2.41623,-15.08807 -0.48325,-2.469933 -1.77191,-6.067444 -3.7049,-6.067444 -1.933,0 -2.95319,1.127578 -4.45662,4.939866 -1.50344,3.812288 -3.97337,10.470368 -4.51032,12.510748 -0.53694,2.04038 -2.14776,7.03394 -2.46993,8.161518 -0.32216,1.127578 -1.02019,2.416239 -1.28866,2.362545 -0.26847,-0.05369 -0.59064,-1.825603 -0.85911,-8.644766 -0.26847,-6.819163 -0.96649,-15.625012 -0.75172,-18.309722 0.21478,-2.68471 1.23497,-8.3762946 -2.255152,-8.0541295 z"
         id="path52" />
      <path
         class="cls-2"
         d="m 146.40199,6.1903708 c -1.45766,0.053988 -2.36254,-0.268471 -2.46993,3.0068751 -0.10739,3.2753461 -1.61083,10.8462281 -1.8793,12.9403021 -0.26847,2.094073 -0.48325,7.624576 -0.53694,10.201897 -0.0537,2.577322 -0.53694,7.678271 -0.32217,9.611262 0.21478,1.932991 1.07389,6.01375 0.64433,8.429989 -0.42955,2.416239 -0.8591,4.617701 1.44975,4.832478 2.30885,0.214777 3.16795,0.536942 3.16795,-1.879297 0,-2.416239 0.16109,-11.061005 0.59064,-13.638326 0.42955,-2.577322 1.23497,-18.309722 1.28866,-20.350102 0.0537,-2.040379 0.42956,-6.604386 0.37586,-7.839353 -0.0537,-1.234966 -0.21478,-2.7384037 -0.0537,-3.8659819 0.16108,-1.1275781 -0.80542,-1.5034375 -2.25516,-1.4497433 z"
         id="path54" />
      <path
         class="cls-2"
         d="m 159.93293,3.4519666 c -1.24474,0.041491 -2.36255,0.268471 -2.20146,2.0940738 0.16108,1.8256027 -0.75172,9.9334266 -1.07389,12.9403016 -0.32216,3.006875 -0.42955,6.174833 -0.21477,9.611262 0.21477,3.436428 0.16108,7.302411 0.10738,9.611261 -0.0537,2.308851 0.53695,5.798974 0.85911,9.181708 0.32217,3.382735 -0.0537,6.443304 -0.16108,7.570882 -0.10739,1.127578 -0.64433,2.094074 1.61082,2.416239 2.25516,0.322165 9.45018,0.966496 12.29598,0.322165 2.84579,-0.64433 5.15464,-0.966495 5.10095,-1.986685 -0.0537,-1.02019 -0.37586,-2.523627 -1.28867,-2.255157 -0.9128,0.268471 -6.87285,1.181273 -8.96693,1.288661 -2.09407,0.107389 -3.38273,0.751719 -3.6512,-0.859107 -0.26847,-1.610826 -0.32217,-12.134889 -0.16108,-14.873293 0.16108,-2.738404 0.21477,-15.7324 0.21477,-18.04125 0,-2.308851 0.32217,-6.282222 0.10739,-8.698461 -0.21478,-2.4162385 -0.42955,-4.5103123 -0.32216,-5.8526672 0.10738,-1.342355 0.96649,-2.5773215 -2.25516,-2.4699332 z"
         id="path56" />
      <path
         class="cls-2"
         d="m 198.70014,14.620377 c -1.12759,-2.953226 -3.6512,-7.0876487 -7.57089,-9.2890868 -3.91966,-2.2015563 -7.73197,-2.5773913 -7.73197,-2.5773913 -2.63099,-0.1073815 -4.6177,-0.1610722 -4.6177,1.5571493 0,1.7182215 3.7049,1.8792936 3.7049,1.8792936 0,0 -0.21476,2.7384636 -0.32214,5.6915722 -0.10742,2.953226 -0.85911,18.900436 -0.9665,21.692472 -0.10741,2.792154 -0.48324,15.356612 -0.53696,17.55805 -0.0537,2.201438 -0.37584,5.5305 2.20146,5.476809 2.57734,-0.05369 3.65121,-1.61084 5.85268,-3.91966 2.20147,-2.308937 5.69157,-6.228597 8.64477,-12.457076 2.95316,-6.228479 3.32903,-10.094566 3.38272,-13.5847 0.0537,-3.490015 -0.9128,-9.074324 -2.04037,-12.027432 z m -3.38275,15.571257 c -1.18125,5.637881 -3.22165,9.50385 -5.10094,12.940293 -1.8793,3.436443 -3.97335,5.637999 -4.56401,6.228597 -0.59063,0.590598 -0.53694,-1.235005 -0.16107,-2.523701 0.37586,-1.288577 0.21476,-8.054082 0.10738,-11.007308 -0.10738,-2.953108 0,-10.685164 0.0537,-13.155056 0.0537,-2.469892 0.75173,-10.309211 0.69804,-12.242313 -0.0537,-1.9328664 -0.37587,-3.4364433 -0.37587,-3.4364433 4.02707,-0.3221443 7.67828,5.6916903 8.64477,8.7522983 0.96649,3.060489 1.8793,8.805752 0.69801,14.443633 z"
         id="path58" />
      <path
         class="cls-2"
         d="m 105.64809,72.5564 c 0.99119,-0.264317 3.27535,-0.161083 2.89949,1.288661 -0.37586,1.449743 -1.44974,2.094073 -2.30885,2.899486 -0.85911,0.805413 -2.25516,2.631016 -3.11426,5.262032 -0.85911,2.631016 -1.8793,6.496998 -2.04038,7.731964 -0.16109,1.234967 -1.127581,10.362977 -1.181275,13.906797 -0.05369,3.54382 0.214775,7.62458 1.503435,12.34967 1.28866,4.72509 3.27535,5.42311 3.7586,5.36942 0.48324,-0.0537 1.61082,0.32216 4.02706,-4.40293 2.41624,-4.72509 3.86598,-12.34966 4.29554,-17.28953 0.42955,-4.939866 0.95724,-9.673262 -0.26847,-16.108259 -0.64433,-3.382735 -1.98669,-5.36942 -2.52363,-6.335916 -0.53694,-0.966495 -1.12758,-2.040379 -0.64433,-3.167958 0.48325,-1.127578 2.14777,-0.859107 3.00687,-0.322165 0.85911,0.536942 2.8458,2.953181 3.65121,7.141329 0.80541,4.188147 1.50344,11.544252 1.61083,14.551127 0.10738,3.006875 0.26847,8.591072 -1.44975,14.282662 -1.71821,5.69158 -4.6177,11.65164 -5.96005,12.99399 -1.34236,1.34236 -3.49013,2.95318 -6.60439,2.73841 -3.11426,-0.21478 -7.033941,-3.32905 -8.752155,-12.02751 -1.718214,-8.69846 0.375859,-21.155509 2.040379,-26.256458 1.664521,-5.100949 2.845796,-8.483684 3.973376,-10.631451 1.12757,-2.147768 3.27534,-3.758594 4.08075,-3.973371 z"
         id="path60" />
      <path
         class="cls-2"
         d="m 127.87749,72.878565 c -0.91067,0.124182 -2.04038,1.610826 -2.46993,5.208337 -0.42955,3.597512 -0.42955,10.09451 -0.37586,13.584632 0.0537,3.490123 0,11.651646 0.16108,14.282656 0.16109,2.63102 0.37586,7.67827 0.42956,10.57776 0.0537,2.89949 -0.21478,5.58419 0.69802,6.33591 0.9128,0.75172 1.8793,0.75172 2.68471,-1.18127 0.80541,-1.93299 0.69803,-2.14777 0.53694,-4.72509 -0.16108,-2.57732 -0.53694,-11.22209 -0.48325,-13.04769 0.0537,-1.8256 0.16109,-6.604385 0.21478,-8.054128 0.0537,-1.449743 -0.0537,-3.436429 0.85911,-3.651206 0.9128,-0.214776 1.12758,0.161083 1.50344,1.288661 0.37586,1.127578 4.24184,13.369853 4.83247,15.088073 0.59064,1.71821 1.50344,5.90636 1.8793,7.19502 0.37586,1.28866 1.28866,3.97337 2.14777,5.26203 0.85911,1.28866 1.39605,2.09407 3.27535,1.8256 1.87929,-0.26847 2.30885,-1.7719 2.84579,-4.67139 0.53694,-2.89949 0.59063,-7.24872 0.59063,-9.34279 0,-2.09408 0.37586,-13.477246 0.59064,-15.088072 0.21478,-1.610826 0.80541,-10.36298 1.02019,-12.0275 0.21478,-1.66452 0.42955,-3.758594 -0.0537,-5.208337 -0.48325,-1.449744 -1.18128,-2.308851 -2.30886,-2.147768 -1.12757,0.161082 -1.7719,1.073884 -1.71821,2.30885 0.0537,1.234967 -0.26847,8.161518 -0.42955,11.490559 -0.16109,3.32904 -0.9128,12.886608 -1.12758,15.356538 -0.21478,2.46994 -0.42955,5.42312 -0.48325,5.90636 -0.0537,0.48325 0.0537,0.69803 -0.42955,0.69803 -0.48325,0 -1.18127,-1.50344 -2.46994,-6.497 -1.28866,-4.99356 -6.06744,-20.189018 -6.60438,-22.122009 -0.53694,-1.932991 -2.09081,-5.712099 -3.06057,-6.980246 -0.69803,-0.912801 -1.07389,-1.825603 -2.25516,-1.66452 z"
         id="path62" />
      <path
         class="cls-2"
         d="m 174.48406,74.328308 c 0,-0.912801 -0.37586,-2.094073 -1.93299,-2.201462 -1.55714,-0.107388 -9.23541,0.37586 -11.06101,0.644331 -1.8256,0.268471 -2.68471,0.429553 -3.11426,1.396049 -0.42956,0.966495 -3.32904,10.631451 -3.43643,12.564442 -0.10739,1.932991 -0.37586,5.36942 -0.32217,9.128014 0.0537,3.758594 0.10739,11.866418 0.9665,15.947178 0.85911,4.08076 3.97337,8.59107 6.06744,10.25559 2.09408,1.66452 5.69159,2.41624 8.53738,2.09407 2.84579,-0.32216 4.51031,-1.18127 4.29554,-3.00687 -0.21478,-1.8256 -1.8793,-2.7384 -2.63102,-2.30885 -0.75172,0.42955 -3.6512,1.50344 -5.36942,1.07388 0,0 -3.32904,-1.8256 -4.40292,-5.58419 -1.07389,-3.7586 -1.66452,-10.52407 -1.71822,-11.97381 -0.0537,-1.44974 -0.0537,-2.523627 -0.0537,-2.523627 0,0 3.06057,-0.429554 4.564,-0.590637 1.50344,-0.161082 2.46994,-0.107388 2.30886,-1.449743 -0.16109,-1.342355 -0.21478,-1.986685 -1.12758,-1.879297 -0.9128,0.107389 -2.14777,0.107389 -3.81229,0.536942 -1.33263,0.343905 -1.61083,0.322165 -1.61083,0.322165 0,0 -0.0537,-5.476808 0.75172,-11.275781 0.80542,-5.798974 1.44975,-8.69846 1.44975,-8.69846 0,0 6.4433,-1.02019 7.89304,-0.966496 1.44975,0.05369 3.06057,0.161083 3.49013,-0.214777 0.42955,-0.375859 0.26847,-1.288661 0.26847,-1.288661 z"
         id="path64" />
      <path
         class="cls-2"
         d="m 195.69326,81.630719 c 0.77772,-0.209386 1.77191,-1.073884 1.82561,-2.094073 0.0537,-1.02019 -0.59064,-3.919677 -1.44975,-5.798974 -0.8591,-1.879297 -2.95318,-3.919676 -7.14132,-3.651205 -4.18815,0.268471 -7.19503,4.080759 -8.48369,8.05413 -1.28866,3.97337 -1.07388,8.69846 -0.26847,10.040815 0.80541,1.342355 2.52363,2.523627 5.20834,3.114263 2.68471,0.590636 6.65808,1.986685 8.00043,3.597511 1.34236,1.610826 1.933,5.262034 1.933,8.107824 0,2.84579 -0.9665,8.05413 -2.30886,11.65164 -1.34235,3.59751 -2.89948,8.21521 -7.24871,7.51719 -4.34923,-0.69803 -4.02707,-3.32904 -3.65121,-6.17483 0.37586,-2.8458 1.28866,-5.47681 0.26847,-6.60439 -1.02019,-1.12758 -2.68471,-0.59064 -3.16795,0.9128 -0.48325,1.50344 -1.39605,6.28222 -1.07389,8.3226 0.32217,2.04038 1.34236,5.63789 5.85267,6.65808 4.51031,1.02019 6.87286,-0.32216 9.12801,-2.36254 2.25516,-2.04038 5.63789,-7.83936 6.17484,-13.96049 0.53694,-6.12114 0.80541,-10.470372 -0.9665,-14.604826 -1.77191,-4.134453 -6.81916,-5.691585 -7.94674,-6.067444 -1.12758,-0.375859 -4.51031,-0.859107 -5.5842,-1.932991 -1.07388,-1.073884 -0.69802,-3.543817 -0.10739,-6.228527 0.59064,-2.68471 1.71822,-6.765469 4.93987,-6.765469 3.22165,0 4.51031,3.006875 4.40292,4.886172 -0.10738,1.879297 0.26848,3.758594 1.66452,3.382734 z"
         id="path66" />
    </g>
  </g>
</svg>
